Coordinates
version=1
nRows=8
nColumns=40
inDegrees=yes

Units are S.I. units (second, meters, Newtons, ...)
If the header above contains a line with 'inDegrees', this indicates whether rotational values are in degrees (yes) or radians (no).

endheader
time	pelvis_tilt	pelvis_list	pelvis_rotation	pelvis_tx	pelvis_ty	pelvis_tz	hip_flexion_r	hip_adduction_r	hip_rotation_r	knee_angle_r	knee_angle_r_beta	ankle_angle_r	subtalar_angle_r	mtp_angle_r	hip_flexion_l	hip_adduction_l	hip_rotation_l	knee_angle_l	knee_angle_l_beta	ankle_angle_l	subtalar_angle_l	mtp_angle_l	lumbar_extension	lumbar_bending	lumbar_rotation	arm_flex_r	arm_add_r	arm_rot_r	elbow_flex_r	pro_sup_r	wrist_flex_r	wrist_dev_r	arm_flex_l	arm_add_l	arm_rot_l	elbow_flex_l	pro_sup_l	wrist_flex_l	wrist_dev_l
      0.00000000	     15.67481291	      5.35416509	      3.69774237	     -0.05532162	      0.95937919	     -0.31181250	     10.92808557	     -6.99381041	    -11.20445537	     14.44036059	      0.25203184	    -10.80496292	      0.00000000	      0.00000000	    -29.43491989	      6.87997112	      4.64520711	      8.44833350	      0.14745124	     -4.12842510	      0.00000000	      0.00000000	    -31.90347436	     -3.41178317	     -9.87978073	     -1.63543677	    -15.20429231	      6.64633492	     42.60826960	     74.25150206	      0.00000000	      0.00000000	     14.48690444	    -27.48362280	     23.85484539	     59.82591541	     75.00729803	      0.00000000	      0.00000000
      0.00400000	     15.43885800	      5.46326722	      3.67365364	     -0.05012136	      0.95782645	     -0.31180850	     11.50770347	     -7.04925060	    -11.25284470	     13.96618203	      0.24375586	    -10.77532186	      0.00000000	      0.00000000	    -29.41813733	      6.98042409	      4.59897409	      8.69351274	      0.15173042	     -4.01721918	      0.00000000	      0.00000000	    -31.66929485	     -3.50139444	     -9.94546890	     -1.63660182	    -15.18580340	      6.67754799	     42.54183010	     74.36869970	      0.00000000	      0.00000000	     14.57974060	    -27.50390475	     23.88783918	     59.87841220	     75.16027123	      0.00000000	      0.00000000
      0.00800000	     15.31887508	      5.49002899	      3.54070671	     -0.04495643	      0.95658118	     -0.31131821	     11.71199115	     -6.87107491	    -10.73800013	     12.93496364	      0.22575770	    -11.15922126	      0.00000000	      0.00000000	    -29.42620819	      7.01718414	      4.27528164	      9.14323297	      0.15957952	     -3.74384305	      0.00000000	      0.00000000	    -31.59197587	     -3.59604542	     -9.89779762	     -1.55530019	    -15.07808697	      6.49551114	     42.40371202	     74.77202451	      0.00000000	      0.00000000	     14.64710749	    -27.54945628	     23.79368708	     59.97296198	     75.73551389	      0.00000000	      0.00000000
      0.01200000	     15.17585967	      5.60757025	      3.54024035	     -0.04004748	      0.95523091	     -0.31132043	     12.11332525	     -6.90735958	    -10.70469458	     12.35121076	      0.21556929	    -11.24783992	      0.00000000	      0.00000000	    -29.43602766	      7.10033039	      4.30303066	      9.48890924	      0.16561271	     -3.59458046	      0.00000000	      0.00000000	    -31.51658405	     -3.68141621	     -9.99711880	     -1.46870369	    -15.03227928	      6.44011783	     42.33230412	     74.90824988	      0.00000000	      0.00000000	     14.80170315	    -27.58034471	     23.77973210	     60.00044547	     75.89251225	      0.00000000	      0.00000000
      0.01600000	     15.04046623	      5.72114443	      3.53551377	     -0.03501049	      0.95394270	     -0.31131985	     12.37010487	     -6.91048975	    -10.52360902	     11.53935807	      0.20139979	    -11.57266431	      0.00000000	      0.00000000	    -29.44474644	      7.18006653	      4.37440240	      9.88919938	      0.17259909	     -3.33143718	      0.00000000	      0.00000000	    -31.44027230	     -3.76214274	    -10.05886283	     -1.43868143	    -14.98885638	      6.35971423	     42.29749057	     75.02561846	      0.00000000	      0.00000000	     14.93706960	    -27.59568454	     23.81175887	     60.06407247	     76.04980673	      0.00000000	      0.00000000
      0.02000000	     14.85210859	      5.75370945	      3.55056203	     -0.02969254	      0.95254304	     -0.31122641	     12.83220700	     -6.86525351	    -10.52002933	     11.17906611	      0.19511151	    -11.55831929	      0.00000000	      0.00000000	    -29.45223071	      7.16110671	      4.44084929	     10.18554380	      0.17777128	     -3.34757568	      0.00000000	      0.00000000	    -31.26943522	     -3.77141624	    -10.09511248	     -1.46101783	    -14.94593638	      6.26784458	     42.26752631	     75.02514187	      0.00000000	      0.00000000	     15.00720870	    -27.59714245	     23.77784285	     60.10213079	     76.08575089	      0.00000000	      0.00000000
      0.02400000	     14.70664457	      5.79864888	      3.52560569	     -0.02448689	      0.95120514	     -0.31093918	     13.29019463	     -6.81758500	    -10.55029954	     10.92016074	      0.19059276	    -11.53552464	      0.00000000	      0.00000000	    -29.50680452	      7.15132389	      4.50560449	     10.42189364	      0.18189636	     -3.35340318	      0.00000000	      0.00000000	    -31.16717031	     -3.82536276	    -10.10618429	     -1.46193364	    -14.80646005	      6.29861788	     42.29787674	     75.04434824	      0.00000000	      0.00000000	     15.10984062	    -27.61130567	     23.74730855	     60.14201654	     76.10004367	      0.00000000	      0.00000000
      0.02800000	     14.60619768	      5.89338634	      3.73035346	     -0.01913583	      0.94998337	     -0.31101651	     13.31230773	     -6.81157731	    -10.28144927	     10.03324840	      0.17511322	    -11.83654478	      0.00000000	      0.00000000	    -29.46953633	      7.08516480	      4.73747526	     11.11908254	      0.19406460	     -2.77443600	      0.00000000	      0.00000000	    -31.09950648	     -3.80484847	    -10.35391566	     -1.45221198	    -14.69850417	      6.13702868	     42.19913313	     75.12740510	      0.00000000	      0.00000000	     15.16893897	    -27.67063722	     23.77799620	     60.18406217	     76.24985636	      0.00000000	      0.00000000
